<?xml version="1.0" encoding="UTF-8" standalone="no"?>
<!DOCTYPE svg PUBLIC "-//W3C//DTD SVG 1.0//EN" "http://www.w3.org/TR/2001/PR-SVG-20010719/DTD/svg10.dtd">
<svg width="53cm" height="18cm" viewBox="128 72 1050 354" xmlns="http://www.w3.org/2000/svg" xmlns:xlink="http://www.w3.org/1999/xlink">
  <text font-size="12.8" style="fill: #000000;text-anchor:start;font-family:sans-serif;font-style:normal;font-weight:normal" x="464" y="201.75">
    <tspan x="464" y="201.75"></tspan>
  </text>
  <g>
    <rect style="fill: #ffffff" x="128.9" y="201" width="418" height="32"/>
    <rect style="fill: none; fill-opacity:0; stroke-width: 2; stroke: #000000" x="128.9" y="201" width="418" height="32"/>
    <text font-size="11.2" style="fill: #0000ff;text-anchor:middle;font-family:sans-serif;font-style:normal;font-weight:700" x="337.9" y="215">訂單 - 陳龍 (0966061621)</text>
    <text font-size="11.2" style="fill: #0000ff;text-anchor:middle;font-family:sans-serif;font-style:normal;font-weight:normal" x="337.9" y="229">$ 27000</text>
    <rect style="fill: #ffffff" x="128.9" y="233" width="418" height="68"/>
    <rect style="fill: none; fill-opacity:0; stroke-width: 2; stroke: #000000" x="128.9" y="233" width="418" height="68"/>
    <ellipse style="fill: none; fill-opacity:0; stroke-width: 0.2; stroke: #000000" cx="133.9" cy="243" rx="2" ry="2"/>
    <text font-size="12.8" style="fill: #0000ff;text-anchor:start;font-family:monospace;font-style:normal;font-weight:normal" x="137.9" y="249">高職／四技統測 | 統測共同科目 | 統測英文(艾倫+安柏)</text>
    <text font-size="12.8" style="fill: #0000ff;text-anchor:start;font-family:monospace;font-style:normal;font-weight:normal" x="486" y="249">$ 7500</text>
    <ellipse style="fill: none; fill-opacity:0; stroke-width: 0.2; stroke: #000000" cx="133.9" cy="259" rx="2" ry="2"/>
    <text font-size="12.8" style="fill: #0000ff;text-anchor:start;font-family:monospace;font-style:normal;font-weight:normal" x="137.9" y="265">高職／四技統測 | 多科總複習 | 餐旅群(專業科目)</text>
    <text font-size="12.8" style="fill: #0000ff;text-anchor:start;font-family:monospace;font-style:normal;font-weight:normal" x="486" y="265">$ 14000</text>
    <ellipse style="fill: none; fill-opacity:0; stroke-width: 0.2; stroke: #000000" cx="133.9" cy="275" rx="2" ry="2"/>
    <text font-size="12.8" style="fill: #0000ff;text-anchor:start;font-family:monospace;font-style:normal;font-weight:normal" x="137.9" y="281">高職／四技統測 | 統測共同科目 | 統測國文(言仲)</text>
    <text font-size="12.8" style="fill: #0000ff;text-anchor:start;font-family:monospace;font-style:normal;font-weight:normal" x="486" y="281">$ 5500</text>
    <ellipse style="fill: none; fill-opacity:0; stroke-width: 0.2; stroke: #000000" cx="133.9" cy="291" rx="2" ry="2"/>
    <text font-size="12.8" style="fill: #0000ff;text-anchor:start;font-family:monospace;font-style:normal;font-weight:normal" x="137.9" y="297">總合</text>
    <text font-size="12.8" style="fill: #0000ff;text-anchor:start;font-family:monospace;font-style:normal;font-weight:normal" x="486" y="297">$ 27000</text>
  </g>
  <g>
    <rect style="fill: #ffffff" x="678.9" y="72" width="175.8" height="18"/>
    <rect style="fill: none; fill-opacity:0; stroke-width: 2; stroke: #000000" x="678.9" y="72" width="175.8" height="18"/>
    <text font-size="11.2" style="fill: #0000ff;text-anchor:middle;font-family:sans-serif;font-style:normal;font-weight:700" x="766.8" y="86">課程拆分 - 統測英文(艾倫+安柏)</text>
    <rect style="fill: #ffffff" x="678.9" y="90" width="175.8" height="41"/>
    <rect style="fill: none; fill-opacity:0; stroke-width: 2; stroke: #000000" x="678.9" y="90" width="175.8" height="41"/>
    <ellipse style="fill: none; fill-opacity:0; stroke-width: 0.2; stroke: #000000" cx="683.9" cy="100" rx="2" ry="2"/>
    <text font-size="12.8" style="fill: #0000ff;text-anchor:start;font-family:monospace;font-style:normal;font-weight:normal" x="687.9" y="106">廠商</text>
    <text font-size="12.8" style="fill: #0000ff;text-anchor:start;font-family:monospace;font-style:normal;font-weight:normal" x="723.5" y="106">艾倫英文</text>
    <text font-size="11.2" style="fill: #0000ff;text-anchor:start;font-family:sans-serif;font-style:normal;font-weight:normal" x="692.9" y="120">100% =&gt; $7500</text>
  </g>
  <g>
    <rect style="fill: #ffffff" x="1006.9" y="262" width="139.5" height="18"/>
    <rect style="fill: none; fill-opacity:0; stroke-width: 2; stroke: #000000" x="1006.9" y="262" width="139.5" height="18"/>
    <text font-size="11.2" style="fill: #0000ff;text-anchor:middle;font-family:sans-serif;font-style:normal;font-weight:700" x="1076.65" y="276">廠商拆分 - 可樂老師</text>
    <rect style="fill: #ffffff" x="1006.9" y="280" width="139.5" height="41"/>
    <rect style="fill: none; fill-opacity:0; stroke-width: 2; stroke: #000000" x="1006.9" y="280" width="139.5" height="41"/>
    <ellipse style="fill: none; fill-opacity:0; stroke-width: 0.2; stroke: #000000" cx="1011.9" cy="290" rx="2" ry="2"/>
    <text font-size="12.8" style="fill: #0000ff;text-anchor:start;font-family:monospace;font-style:normal;font-weight:normal" x="1015.9" y="296">甲方拆分</text>
    <text font-size="12.8" style="fill: #0000ff;text-anchor:start;font-family:monospace;font-style:normal;font-weight:normal" x="1077.1" y="296">20%</text>
    <text font-size="11.2" style="fill: #0000ff;text-anchor:start;font-family:sans-serif;font-style:normal;font-weight:normal" x="1020.9" y="310">5000 * 20% = $ 1000 元</text>
  </g>
  <g>
    <rect style="fill: #ffffff" x="692.8" y="367" width="144.15" height="18"/>
    <rect style="fill: none; fill-opacity:0; stroke-width: 2; stroke: #000000" x="692.8" y="367" width="144.15" height="18"/>
    <text font-size="11.2" style="fill: #0000ff;text-anchor:middle;font-family:sans-serif;font-style:normal;font-weight:700" x="764.875" y="381">課程拆分 - 統測國文(言仲)</text>
    <rect style="fill: #ffffff" x="692.8" y="385" width="144.15" height="41"/>
    <rect style="fill: none; fill-opacity:0; stroke-width: 2; stroke: #000000" x="692.8" y="385" width="144.15" height="41"/>
    <ellipse style="fill: none; fill-opacity:0; stroke-width: 0.2; stroke: #000000" cx="697.8" cy="395" rx="2" ry="2"/>
    <text font-size="12.8" style="fill: #0000ff;text-anchor:start;font-family:monospace;font-style:normal;font-weight:normal" x="701.8" y="401">廠商</text>
    <text font-size="12.8" style="fill: #0000ff;text-anchor:start;font-family:monospace;font-style:normal;font-weight:normal" x="737.4" y="401">言仲</text>
    <text font-size="11.2" style="fill: #0000ff;text-anchor:start;font-family:sans-serif;font-style:normal;font-weight:normal" x="706.8" y="415">100% =&gt; 5500</text>
  </g>
  <g>
    <rect style="fill: #ffffff" x="990.7" y="367" width="187.4" height="18"/>
    <rect style="fill: none; fill-opacity:0; stroke-width: 2; stroke: #000000" x="990.7" y="367" width="187.4" height="18"/>
    <text font-size="11.2" style="fill: #0000ff;text-anchor:middle;font-family:sans-serif;font-style:normal;font-weight:700" x="1084.4" y="381">廠商拆分 - 言仲</text>
    <rect style="fill: #ffffff" x="990.7" y="385" width="187.4" height="20"/>
    <rect style="fill: none; fill-opacity:0; stroke-width: 2; stroke: #000000" x="990.7" y="385" width="187.4" height="20"/>
    <ellipse style="fill: none; fill-opacity:0; stroke-width: 0.2; stroke: #000000" cx="995.7" cy="395" rx="2" ry="2"/>
    <text font-size="12.8" style="fill: #0000ff;text-anchor:start;font-family:monospace;font-style:normal;font-weight:normal" x="999.7" y="401">甲方拆分</text>
    <text font-size="12.8" style="fill: #0000ff;text-anchor:start;font-family:monospace;font-style:normal;font-weight:normal" x="1060.9" y="401">固定金額 3000 元</text>
  </g>
  <g>
    <rect style="fill: #ffffff" x="688.6" y="197" width="155.4" height="18"/>
    <rect style="fill: none; fill-opacity:0; stroke-width: 2; stroke: #000000" x="688.6" y="197" width="155.4" height="18"/>
    <text font-size="11.2" style="fill: #0000ff;text-anchor:middle;font-family:sans-serif;font-style:normal;font-weight:700" x="766.3" y="211">課程拆分 - 餐旅群(專業科目)</text>
    <rect style="fill: #ffffff" x="688.6" y="215" width="155.4" height="78"/>
    <rect style="fill: none; fill-opacity:0; stroke-width: 2; stroke: #000000" x="688.6" y="215" width="155.4" height="78"/>
    <ellipse style="fill: none; fill-opacity:0; stroke-width: 0.2; stroke: #000000" cx="693.6" cy="225" rx="2" ry="2"/>
    <text font-size="12.8" style="fill: #0000ff;text-anchor:start;font-family:monospace;font-style:normal;font-weight:normal" x="697.6" y="231">廠商</text>
    <text font-size="12.8" style="fill: #0000ff;text-anchor:start;font-family:monospace;font-style:normal;font-weight:normal" x="733.2" y="231">李秉登</text>
    <text font-size="11.2" style="fill: #0000ff;text-anchor:start;font-family:sans-serif;font-style:normal;font-weight:normal" x="702.6" y="245">固定金額 =&gt; 10000元</text>
    <ellipse style="fill: none; fill-opacity:0; stroke-width: 0.2; stroke: #000000" cx="693.6" cy="262" rx="2" ry="2"/>
    <text font-size="12.8" style="fill: #0000ff;text-anchor:start;font-family:monospace;font-style:normal;font-weight:normal" x="697.6" y="268">廠商</text>
    <text font-size="12.8" style="fill: #0000ff;text-anchor:start;font-family:monospace;font-style:normal;font-weight:normal" x="733.2" y="268">可樂老師</text>
    <text font-size="11.2" style="fill: #0000ff;text-anchor:start;font-family:sans-serif;font-style:normal;font-weight:normal" x="702.6" y="282">固定金額 =&gt; 5000元</text>
  </g>
  <g>
    <line style="fill: none; fill-opacity:0; stroke-width: 3; stroke-dasharray: 4; stroke: #000000" x1="546.9" y1="243" x2="671.1" y2="108.45"/>
    <polygon style="fill: #000000" points="674.774,111.842 677.883,101.102 667.426,105.059 "/>
    <polygon style="fill: none; fill-opacity:0; stroke-width: 3; stroke: #000000" points="674.774,111.842 677.883,101.102 667.426,105.059 "/>
  </g>
  <g>
    <line style="fill: none; fill-opacity:0; stroke-width: 3; stroke-dasharray: 4; stroke: #000000" x1="549" y1="262" x2="677.1" y2="262"/>
    <polygon style="fill: #000000" points="677.1,267 687.1,262 677.1,257 "/>
    <polygon style="fill: none; fill-opacity:0; stroke-width: 3; stroke: #000000" points="677.1,267 687.1,262 677.1,257 "/>
  </g>
  <g>
    <line style="fill: none; fill-opacity:0; stroke-width: 3; stroke-dasharray: 4; stroke: #000000" x1="549" y1="278" x2="683.88" y2="387.742"/>
    <polygon style="fill: #000000" points="680.724,391.621 691.636,394.053 687.035,383.864 "/>
    <polygon style="fill: none; fill-opacity:0; stroke-width: 3; stroke: #000000" points="680.724,391.621 691.636,394.053 687.035,383.864 "/>
  </g>
  <g>
    <rect style="fill: #ffffff" x="997.9" y="175" width="155.2" height="18"/>
    <rect style="fill: none; fill-opacity:0; stroke-width: 2; stroke: #000000" x="997.9" y="175" width="155.2" height="18"/>
    <text font-size="11.2" style="fill: #0000ff;text-anchor:middle;font-family:sans-serif;font-style:normal;font-weight:700" x="1075.5" y="189">廠商拆分 - 李秉登</text>
    <rect style="fill: #ffffff" x="997.9" y="193" width="155.2" height="41"/>
    <rect style="fill: none; fill-opacity:0; stroke-width: 2; stroke: #000000" x="997.9" y="193" width="155.2" height="41"/>
    <ellipse style="fill: none; fill-opacity:0; stroke-width: 0.2; stroke: #000000" cx="1002.9" cy="203" rx="2" ry="2"/>
    <text font-size="12.8" style="fill: #0000ff;text-anchor:start;font-family:monospace;font-style:normal;font-weight:normal" x="1006.9" y="209">甲方拆分</text>
    <text font-size="12.8" style="fill: #0000ff;text-anchor:start;font-family:monospace;font-style:normal;font-weight:normal" x="1068.1" y="209">20%</text>
    <text font-size="11.2" style="fill: #0000ff;text-anchor:start;font-family:sans-serif;font-style:normal;font-weight:normal" x="1011.9" y="223">$ 10000 * 20% = $  2000元</text>
  </g>
  <g>
    <rect style="fill: #ffffff" x="997.8" y="72" width="149.1" height="18"/>
    <rect style="fill: none; fill-opacity:0; stroke-width: 2; stroke: #000000" x="997.8" y="72" width="149.1" height="18"/>
    <text font-size="11.2" style="fill: #0000ff;text-anchor:middle;font-family:sans-serif;font-style:normal;font-weight:700" x="1072.35" y="86">廠商拆分 - 艾倫英文</text>
    <rect style="fill: #ffffff" x="997.8" y="90" width="149.1" height="41"/>
    <rect style="fill: none; fill-opacity:0; stroke-width: 2; stroke: #000000" x="997.8" y="90" width="149.1" height="41"/>
    <ellipse style="fill: none; fill-opacity:0; stroke-width: 0.2; stroke: #000000" cx="1002.8" cy="100" rx="2" ry="2"/>
    <text font-size="12.8" style="fill: #0000ff;text-anchor:start;font-family:monospace;font-style:normal;font-weight:normal" x="1006.8" y="106">甲方拆分</text>
    <text font-size="12.8" style="fill: #0000ff;text-anchor:start;font-family:monospace;font-style:normal;font-weight:normal" x="1068" y="106">25%</text>
    <text font-size="11.2" style="fill: #0000ff;text-anchor:start;font-family:sans-serif;font-style:normal;font-weight:normal" x="1011.8" y="120">$ 7500 * 25% = $ 1875 元</text>
  </g>
  <g>
    <line style="fill: none; fill-opacity:0; stroke-width: 3; stroke-dasharray: 4; stroke: #000000" x1="854.7" y1="100" x2="986.3" y2="100"/>
    <polygon style="fill: #000000" points="986.3,105 996.3,100 986.3,95 "/>
    <polygon style="fill: none; fill-opacity:0; stroke-width: 3; stroke: #000000" points="986.3,105 996.3,100 986.3,95 "/>
  </g>
  <g>
    <line style="fill: none; fill-opacity:0; stroke-width: 3; stroke-dasharray: 4; stroke: #000000" x1="844" y1="225" x2="986.516" y2="204.627"/>
    <polygon style="fill: #000000" points="987.223,209.577 996.415,203.212 985.808,199.678 "/>
    <polygon style="fill: none; fill-opacity:0; stroke-width: 3; stroke: #000000" points="987.223,209.577 996.415,203.212 985.808,199.678 "/>
  </g>
  <g>
    <line style="fill: none; fill-opacity:0; stroke-width: 3; stroke-dasharray: 4; stroke: #000000" x1="844" y1="262" x2="995.566" y2="288.052"/>
    <polygon style="fill: #000000" points="994.719,292.98 1005.42,289.746 996.413,283.124 "/>
    <polygon style="fill: none; fill-opacity:0; stroke-width: 3; stroke: #000000" points="994.719,292.98 1005.42,289.746 996.413,283.124 "/>
  </g>
  <g>
    <line style="fill: none; fill-opacity:0; stroke-width: 3; stroke-dasharray: 4; stroke: #000000" x1="836.95" y1="395" x2="979.2" y2="395"/>
    <polygon style="fill: #000000" points="979.2,400 989.2,395 979.2,390 "/>
    <polygon style="fill: none; fill-opacity:0; stroke-width: 3; stroke: #000000" points="979.2,400 989.2,395 979.2,390 "/>
  </g>
</svg>
